<svg width="79" height="71" viewBox="0 0 79 71" fill="none" xmlns="http://www.w3.org/2000/svg">
<path d="M23.5476 36.1294L20.9918 37.3762C19.1217 34.0386 18.1409 30.3134 18.1409 26.5C18.1409 23.706 18.6561 21.03 19.5963 18.5621L22.5249 19.9668C22.8137 20.1053 23.1186 20.171 23.4189 20.171C24.1904 20.171 24.931 19.7377 25.287 18.9955C25.7814 17.9646 25.3466 16.7279 24.3156 16.2334L21.4242 14.8465C25.018 8.98547 31.2359 4.89919 38.4301 4.23565V7.34951C38.4301 8.49294 39.357 9.41982 40.5004 9.41982C41.6438 9.41982 42.5707 8.49294 42.5707 7.34951V4.2341C45.0373 4.45863 47.4239 5.08676 49.6896 6.10949C50.7315 6.57997 51.9578 6.11632 52.4283 5.07444C52.8988 4.03224 52.4353 2.8061 51.3931 2.33562C47.9599 0.78589 44.2951 0 40.5003 0C33.4219 0 26.7672 2.75641 21.7619 7.7616C16.7568 12.7669 14.0003 19.4216 14.0003 26.5C14.0003 31.7306 15.5528 36.8178 18.4901 41.2111C18.8857 41.8027 19.5398 42.131 20.2125 42.131C20.5183 42.131 20.828 42.0632 21.119 41.9212L25.3631 39.8509C26.3908 39.3496 26.8175 38.1102 26.3162 37.0825C25.8148 36.0549 24.5753 35.6283 23.5476 36.1294Z" fill="#2F3035"/>
<path fill-rule="evenodd" clip-rule="evenodd" d="M56.4144 7.70921C57.2367 7.14888 58.3409 7.2526 59.0444 7.95599C59.7478 8.65958 59.8514 9.76389 59.2913 10.5861C57.1796 13.6839 46.562 29.222 44.8922 30.8919C43.6813 32.1027 42.0908 32.7081 40.5004 32.7081C38.91 32.7081 37.3193 32.1027 36.1085 30.8919C33.6869 28.4702 33.6869 24.53 36.1085 22.1082C37.7784 20.4384 53.3165 9.82072 56.4144 7.70921ZM39.0365 27.964C39.8436 28.7713 41.1571 28.7713 41.9642 27.964C42.6052 27.3154 45.7514 22.9041 49.5241 17.4763C44.0964 21.2492 39.6849 24.3954 39.036 25.0366C38.2291 25.8438 38.2292 27.1569 39.0365 27.964Z" fill="#2F3035"/>
<path fill-rule="evenodd" clip-rule="evenodd" d="M0.800293 69.9C0.800293 69.9667 0.833626 70 0.900293 70L4.48029 69.98C5.26696 69.9667 5.97363 69.7733 6.60029 69.4C7.22696 69.0267 7.72696 68.5267 8.10029 67.9C8.47363 67.26 8.66029 66.5533 8.66029 65.78V60.04C8.66029 59.3067 8.48029 58.64 8.12029 58.04C7.76029 57.4267 7.27363 56.94 6.66029 56.58C6.06029 56.22 5.39363 56.0467 4.66029 56.06L0.920293 56.08C0.86696 56.08 0.840293 56.1067 0.840293 56.16L0.800293 69.9ZM4.48029 67.54H3.24029L3.26029 58.48L4.66029 58.46C5.08696 58.4467 5.45363 58.6 5.76029 58.92C6.08029 59.2267 6.24029 59.5933 6.24029 60.02V65.78C6.24029 66.26 6.06696 66.6733 5.72029 67.02C5.38696 67.3667 4.97363 67.54 4.48029 67.54Z" fill="#2F3035"/>
<path fill-rule="evenodd" clip-rule="evenodd" d="M10.2339 69.9C10.2339 69.9667 10.2606 70 10.3139 70H12.5739C12.6272 70 12.6539 69.9667 12.6539 69.9L12.6739 64.02H13.9939C14.4872 64.02 14.9006 64.2 15.2339 64.56C15.5806 64.9067 15.7539 65.32 15.7539 65.8V69.94C15.7539 69.98 15.7806 70 15.8339 70H18.0939C18.1606 70 18.1939 69.9667 18.1939 69.9L18.1739 65.8C18.1739 64.72 17.8139 63.78 17.0939 62.98C17.2539 62.8467 17.4339 62.6467 17.6339 62.38C17.8339 62.1 18.0072 61.7667 18.1539 61.38C18.3006 60.98 18.3739 60.5333 18.3739 60.04C18.3739 59.2933 18.1939 58.6267 17.8339 58.04C17.4739 57.44 16.9872 56.9667 16.3739 56.62C15.7739 56.26 15.1139 56.08 14.3939 56.08H10.3539C10.3006 56.08 10.2739 56.1067 10.2739 56.16L10.2339 69.9ZM14.3939 61.62H12.6739V58.48H14.3939C14.8206 58.48 15.1872 58.6333 15.4939 58.94C15.8139 59.2467 15.9739 59.6133 15.9739 60.04C15.9739 60.48 15.8139 60.8533 15.4939 61.16C15.1739 61.4667 14.8072 61.62 14.3939 61.62Z" fill="#2F3035"/>
<path d="M19.8823 69.9C19.8823 69.9667 19.9157 70 19.9823 70H22.2423C22.2957 70 22.3223 69.9667 22.3223 69.9L22.3023 56.16C22.3023 56.1067 22.2757 56.08 22.2223 56.08H19.9823C19.929 56.08 19.9023 56.1067 19.9023 56.16L19.8823 69.9Z" fill="#2F3035"/>
<path d="M26.2215 69.9C26.2349 69.9667 26.2682 70 26.3215 70H28.7415C28.7949 70 28.8282 69.9667 28.8415 69.9L31.5615 56.16C31.5749 56.1067 31.5482 56.08 31.4815 56.08H29.2415C29.1882 56.08 29.1549 56.1067 29.1415 56.16L27.5415 65.32L25.9015 56.16C25.8882 56.1067 25.8549 56.08 25.8015 56.08H23.5415C23.4749 56.08 23.4482 56.1067 23.4615 56.16L26.2215 69.9Z" fill="#2F3035"/>
<path d="M32.7339 69.9C32.7339 69.9667 32.7606 70 32.8139 70H39.2739C39.3272 70 39.3539 69.9733 39.3539 69.92V67.64C39.3539 67.5733 39.3272 67.54 39.2739 67.54H35.1539V64.04H39.2739C39.3272 64.04 39.3539 64.0133 39.3539 63.96L39.3339 61.7C39.3339 61.6467 39.3072 61.62 39.2539 61.62H35.1539V58.5H39.2539C39.3072 58.5 39.3339 58.4733 39.3339 58.42V56.18C39.3339 56.1133 39.3072 56.08 39.2539 56.08H32.8339C32.7806 56.08 32.7539 56.1067 32.7539 56.16L32.7339 69.9Z" fill="#2F3035"/>
<path d="M44.1011 69.9C44.1011 69.9667 44.1277 70 44.1811 70H46.4411C46.4944 70 46.5211 69.9667 46.5211 69.9L46.5411 59.7L48.6211 62.74L50.7211 59.7L50.7411 69.9C50.7411 69.9667 50.7677 70 50.8211 70H53.0811C53.1344 70 53.1611 69.9667 53.1611 69.9L53.1211 56.16C53.1211 56.1067 53.0944 56.08 53.0411 56.08H50.5811C50.5277 56.08 50.4811 56.1067 50.4411 56.16L48.6211 58.8L46.8011 56.16C46.7611 56.1067 46.7144 56.08 46.6611 56.08H44.2211C44.1677 56.08 44.1411 56.1067 44.1411 56.16L44.1011 69.9Z" fill="#2F3035"/>
<path fill-rule="evenodd" clip-rule="evenodd" d="M56.5633 69.66C57.1633 70.02 57.8233 70.2 58.5433 70.2C59.2633 70.2 59.9166 70.02 60.5033 69.66C61.1033 69.2867 61.5766 68.8 61.9233 68.2C62.2833 67.5867 62.4633 66.9133 62.4633 66.18L62.4433 59.84C62.4433 59.1067 62.2633 58.44 61.9033 57.84C61.5566 57.24 61.0899 56.76 60.5033 56.4C59.9166 56.04 59.2633 55.86 58.5433 55.86C57.8366 55.86 57.1833 56.04 56.5833 56.4C55.9833 56.76 55.5033 57.24 55.1433 57.84C54.7966 58.44 54.6233 59.1067 54.6233 59.84L54.6033 66.18C54.6033 66.9133 54.7833 67.5867 55.1433 68.2C55.5033 68.8 55.9766 69.2867 56.5633 69.66ZM59.5833 67.3C59.2899 67.62 58.9433 67.78 58.5433 67.78C58.1299 67.78 57.7766 67.6267 57.4833 67.32C57.1899 67 57.0433 66.62 57.0433 66.18V59.84C57.0433 59.3867 57.1899 59.0133 57.4833 58.72C57.7766 58.4133 58.1299 58.26 58.5433 58.26C58.9699 58.26 59.3233 58.4133 59.6033 58.72C59.8833 59.0267 60.0233 59.4 60.0233 59.84L60.0433 66.18C60.0433 66.5933 59.8899 66.9667 59.5833 67.3Z" fill="#2F3035"/>
<path d="M65.65 69.9C65.65 69.9667 65.6766 70 65.73 70H67.99C68.0433 70 68.07 69.9667 68.07 69.9L68.05 58.5H70.67C70.7233 58.5 70.75 58.4667 70.75 58.4V56.16C70.75 56.1067 70.7166 56.08 70.65 56.08H63.05C62.9966 56.08 62.97 56.1067 62.97 56.16L62.95 58.4C62.95 58.4667 62.9833 58.5 63.05 58.5H65.65V69.9Z" fill="#2F3035"/>
<path fill-rule="evenodd" clip-rule="evenodd" d="M73.0086 69.66C73.6086 70.02 74.2686 70.2 74.9886 70.2C75.7086 70.2 76.3619 70.02 76.9486 69.66C77.5486 69.2867 78.0219 68.8 78.3686 68.2C78.7286 67.5867 78.9086 66.9133 78.9086 66.18L78.8886 59.84C78.8886 59.1067 78.7086 58.44 78.3486 57.84C78.0019 57.24 77.5352 56.76 76.9486 56.4C76.3619 56.04 75.7086 55.86 74.9886 55.86C74.2819 55.86 73.6286 56.04 73.0286 56.4C72.4286 56.76 71.9486 57.24 71.5886 57.84C71.2419 58.44 71.0686 59.1067 71.0686 59.84L71.0486 66.18C71.0486 66.9133 71.2286 67.5867 71.5886 68.2C71.9486 68.8 72.4219 69.2867 73.0086 69.66ZM76.0286 67.3C75.7352 67.62 75.3886 67.78 74.9886 67.78C74.5752 67.78 74.2219 67.6267 73.9286 67.32C73.6352 67 73.4886 66.62 73.4886 66.18V59.84C73.4886 59.3867 73.6352 59.0133 73.9286 58.72C74.2219 58.4133 74.5752 58.26 74.9886 58.26C75.4152 58.26 75.7686 58.4133 76.0486 58.72C76.3286 59.0267 76.4686 59.4 76.4686 59.84L76.4886 66.18C76.4886 66.5933 76.3352 66.9667 76.0286 67.3Z" fill="#2F3035"/>
<path d="M61.9258 14.5721C62.9683 14.1015 64.1943 14.5652 64.6646 15.6073C66.2145 19.0404 67.0004 22.7053 67.0004 26.5C67.0004 31.7307 65.4478 36.8179 62.5105 41.2113C62.1154 41.8024 61.4611 42.1311 60.7883 42.1311C60.4885 42.1311 60.1853 42.066 59.8993 41.9299L55.5516 39.8596C54.5193 39.368 54.0809 38.1325 54.5725 37.1002C55.0642 36.0678 56.2996 35.6296 57.3318 36.1211L60.0001 37.3917C61.8757 34.0504 62.8597 30.3191 62.8597 26.5C62.8597 23.2966 62.1973 20.2049 60.8908 17.3109C60.4203 16.2688 60.8837 15.0426 61.9258 14.5721Z" fill="#2F3035"/>
</svg>
